<svg width="708" height="204" viewBox="0 0 708 204" fill="none" xmlns="http://www.w3.org/2000/svg">
<path d="M181.472 42.51C180.925 33.3862 179.411 27.6429 175.088 23.5248C168.466 17.217 157.841 17.1856 136.588 17.1227L99.0184 17.0116C77.766 16.9488 67.1398 16.9174 60.5568 23.186C53.9738 29.4547 54.0048 39.5753 54.0668 59.8166L54.2202 109.911C54.2822 130.153 54.3132 140.273 60.9347 146.581C67.5562 152.889 78.1824 152.92 99.4349 152.983L105.218 153" stroke="#A0EADE" stroke-width="9.67"/>
<path d="M178.037 175.941L157.27 181.443C138.048 186.535 128.436 189.081 120.906 184.911C113.375 180.741 110.866 171.482 105.848 152.966L93.4283 107.141C88.4101 88.6244 85.9011 79.3666 90.3137 72.0324C94.7264 64.6982 104.338 62.152 123.56 57.0597L157.541 48.0576C176.764 42.9653 186.374 40.4191 193.906 44.5893C201.436 48.7596 203.945 58.0177 208.963 76.5338L221.432 122.541C223.566 130.416 224.633 134.353 223.46 138.054M178.037 175.941C184.426 174.248 184.477 174.221 189.445 169.956L212.752 149.943C219.109 144.486 222.288 141.756 223.46 138.054M178.037 175.941C178.037 175.941 183.033 136.899 194.214 131.75C206.898 125.909 223.46 138.054 223.46 138.054" stroke="#9A031E" stroke-width="9.67"/>
<path d="M301.6 138V79H278.4V68H337.8V79H314.6V138H301.6ZM334.141 138L365.641 68H378.441L410.041 138H396.441L369.341 74.9H374.541L347.541 138H334.141ZM348.641 121.8L352.141 111.6H389.941L393.441 121.8H348.641ZM440.643 139C435.176 139 429.943 138.233 424.943 136.7C419.943 135.1 415.976 133.067 413.043 130.6L417.543 120.5C420.343 122.7 423.81 124.533 427.943 126C432.076 127.467 436.31 128.2 440.643 128.2C444.31 128.2 447.276 127.8 449.543 127C451.81 126.2 453.476 125.133 454.543 123.8C455.61 122.4 456.143 120.833 456.143 119.1C456.143 116.967 455.376 115.267 453.843 114C452.31 112.667 450.31 111.633 447.843 110.9C445.443 110.1 442.743 109.367 439.743 108.7C436.81 108.033 433.843 107.267 430.843 106.4C427.91 105.467 425.21 104.3 422.743 102.9C420.343 101.433 418.376 99.5 416.843 97.1C415.31 94.7 414.543 91.6333 414.543 87.9C414.543 84.1 415.543 80.6333 417.543 77.5C419.61 74.3 422.71 71.7667 426.843 69.9C431.043 67.9667 436.343 67 442.743 67C446.943 67 451.11 67.5333 455.243 68.6C459.376 69.6667 462.976 71.2 466.043 73.2L461.943 83.3C458.81 81.4333 455.576 80.0667 452.243 79.2C448.91 78.2667 445.71 77.8 442.643 77.8C439.043 77.8 436.11 78.2333 433.843 79.1C431.643 79.9667 430.01 81.1 428.943 82.5C427.943 83.9 427.443 85.5 427.443 87.3C427.443 89.4333 428.176 91.1667 429.643 92.5C431.176 93.7667 433.143 94.7667 435.543 95.5C438.01 96.2333 440.743 96.9667 443.743 97.7C446.743 98.3667 449.71 99.1333 452.643 100C455.643 100.867 458.343 102 460.743 103.4C463.21 104.8 465.176 106.7 466.643 109.1C468.176 111.5 468.943 114.533 468.943 118.2C468.943 121.933 467.91 125.4 465.843 128.6C463.843 131.733 460.743 134.267 456.543 136.2C452.343 138.067 447.043 139 440.643 139ZM493.434 121.5L492.734 106.1L529.434 68H544.034L513.534 100.4L506.334 108.3L493.434 121.5ZM481.834 138V68H494.834V138H481.834ZM530.634 138L503.834 106.1L512.434 96.6L545.834 138H530.634ZM554.685 138V68H567.685V138H554.685ZM598.519 100.2H633.419V111.2H598.519V100.2ZM599.619 138H586.619V68H637.719V78.9H599.619V138ZM667.491 138V110.3L670.391 118.3L639.991 68H653.891L678.291 108.5H670.491L695.091 68H707.891L677.491 118.3L680.491 110.3V138H667.491Z" fill="#FFFBFE"/>
</svg>
